<svg aria-roledescription="er" viewBox="0 0 684.73828125 1076.111328125" style="max-width: 684.738px; background-color: white;" xmlns:xlink="http://www.w3.org/1999/xlink" xmlns="http://www.w3.org/2000/svg" width="100%" id="mermaid-0"><style>#mermaid-0{font-family:"trebuchet ms",verdana,arial,sans-serif;font-size:16px;fill:#000000;}#mermaid-0 .error-icon{fill:#552222;}#mermaid-0 .error-text{fill:#552222;stroke:#552222;}#mermaid-0 .edge-thickness-normal{stroke-width:2px;}#mermaid-0 .edge-thickness-thick{stroke-width:3.5px;}#mermaid-0 .edge-pattern-solid{stroke-dasharray:0;}#mermaid-0 .edge-pattern-dashed{stroke-dasharray:3;}#mermaid-0 .edge-pattern-dotted{stroke-dasharray:2;}#mermaid-0 .marker{fill:#000000;stroke:#000000;}#mermaid-0 .marker.cross{stroke:#000000;}#mermaid-0 svg{font-family:"trebuchet ms",verdana,arial,sans-serif;font-size:16px;}#mermaid-0 .entityBox{fill:#cde498;stroke:#13540c;}#mermaid-0 .attributeBoxOdd{fill:#ffffff;stroke:#13540c;}#mermaid-0 .attributeBoxEven{fill:#f2f2f2;stroke:#13540c;}#mermaid-0 .relationshipLabelBox{fill:hsl(78.1578947368, 58.4615384615%, 84.5098039216%);opacity:0.7;background-color:hsl(78.1578947368, 58.4615384615%, 84.5098039216%);}#mermaid-0 .relationshipLabelBox rect{opacity:0.5;}#mermaid-0 .relationshipLine{stroke:#000000;}#mermaid-0 .entityTitleText{text-anchor:middle;font-size:18px;fill:#000000;}#mermaid-0 :root{--mermaid-font-family:"trebuchet ms",verdana,arial,sans-serif;}</style><g/><defs><marker orient="auto" markerHeight="18" markerWidth="18" refY="9" refX="0" id="ONLY_ONE_START"><path d="M9,0 L9,18 M15,0 L15,18" fill="none" stroke="gray"/></marker></defs><defs><marker orient="auto" markerHeight="18" markerWidth="18" refY="9" refX="18" id="ONLY_ONE_END"><path d="M3,0 L3,18 M9,0 L9,18" fill="none" stroke="gray"/></marker></defs><defs><marker orient="auto" markerHeight="18" markerWidth="30" refY="9" refX="0" id="ZERO_OR_ONE_START"><circle r="6" cy="9" cx="21" fill="white" stroke="gray"/><path d="M9,0 L9,18" fill="none" stroke="gray"/></marker></defs><defs><marker orient="auto" markerHeight="18" markerWidth="30" refY="9" refX="30" id="ZERO_OR_ONE_END"><circle r="6" cy="9" cx="9" fill="white" stroke="gray"/><path d="M21,0 L21,18" fill="none" stroke="gray"/></marker></defs><defs><marker orient="auto" markerHeight="36" markerWidth="45" refY="18" refX="18" id="ONE_OR_MORE_START"><path d="M0,18 Q 18,0 36,18 Q 18,36 0,18 M42,9 L42,27" fill="none" stroke="gray"/></marker></defs><defs><marker orient="auto" markerHeight="36" markerWidth="45" refY="18" refX="27" id="ONE_OR_MORE_END"><path d="M3,9 L3,27 M9,18 Q27,0 45,18 Q27,36 9,18" fill="none" stroke="gray"/></marker></defs><defs><marker orient="auto" markerHeight="36" markerWidth="57" refY="18" refX="18" id="ZERO_OR_MORE_START"><circle r="6" cy="18" cx="48" fill="white" stroke="gray"/><path d="M0,18 Q18,0 36,18 Q18,36 0,18" fill="none" stroke="gray"/></marker></defs><defs><marker orient="auto" markerHeight="36" markerWidth="57" refY="18" refX="39" id="ZERO_OR_MORE_END"><circle r="6" cy="18" cx="9" fill="white" stroke="gray"/><path d="M21,18 Q39,0 57,18 Q39,36 21,18" fill="none" stroke="gray"/></marker></defs><path style="stroke: gray; fill: none;" marker-start="url(#ZERO_OR_MORE_START)" marker-end="url(#ZERO_OR_ONE_END)" d="M202.390625,499.009765625L202.390625,507.3430989583333C202.390625,515.6764322916666,202.390625,532.3430989583334,215.29231770833334,549.2047500054449C228.19401041666666,566.0664010525566,253.99739583333334,583.1230364801131,266.8990885416667,591.6513541938914L279.80078125,600.1796719076697" class="er relationshipLine"/><path style="stroke: gray; fill: none;" marker-start="url(#ZERO_OR_MORE_START)" marker-end="url(#ONLY_ONE_END)" d="M86.4453125,154.275390625L86.4453125,162.60872395833334C86.4453125,170.94205729166666,86.4453125,187.60872395833334,94.41796875,207.79440651636514C102.390625,227.98008907439694,118.3359375,251.68478752379391,126.30859375,263.5371367484924L134.28125,275.38948597319086" class="er relationshipLine"/><path style="stroke: gray; fill: none;" marker-start="url(#ZERO_OR_MORE_START)" marker-end="url(#ZERO_OR_ONE_END)" d="M307.75140017189597,132.2294921875L297.50051576824666,144.23714192708334C287.2496313645973,156.24479166666666,266.7478625572987,180.26009114583334,254.37672403287397,200.60107421875C242.0055855084493,220.94205729166666,237.7650772668986,237.60872395833334,235.64482314612323,245.94205729166666L233.52456902534786,254.275390625" class="er relationshipLine"/><path style="stroke: gray; fill: none;" marker-start="url(#ZERO_OR_MORE_START)" marker-end="url(#ZERO_OR_ONE_END)" d="M399.40234375,127.6781403343088L416.1412760416667,140.44434871609067C432.8802083333333,153.21055709787254,466.3580729166667,178.74297386143624,483.0970052083333,220.23704682655148C499.8359375,261.7311197916667,499.8359375,319.1868489583333,499.8359375,376.642578125C499.8359375,434.0983072916667,499.8359375,491.5540364583333,485.3118489583333,529.274173210696C470.7877604166667,566.9943099630585,441.7395833333333,584.9788543011172,427.2154947916667,593.9711264701464L412.69140625,602.9633986391757" class="er relationshipLine"/><path style="stroke: gray; fill: none;" marker-start="url(#ZERO_OR_MORE_START)" marker-end="url(#ONLY_ONE_END)" d="M346.24609375,689.193359375L346.24609375,697.5266927083334C346.24609375,705.8600260416666,346.24609375,722.5266927083334,352.4368489583333,741.8239354551807C358.6276041666667,761.1211782020281,371.0091145833333,783.0489970290561,377.1998697916667,794.0129064425702L383.390625,804.9768158560843" class="er relationshipLine"/><path style="stroke: gray; fill: none;" marker-start="url(#ZERO_OR_MORE_START)" marker-end="url(#ONLY_ONE_END)" d="M499.40234375,128.33951443739826L482.8079427083333,140.99549380199855C466.2135416666667,153.65147316659883,433.0247395833333,178.96343189579943,394.8743489583333,210.43750955411565C356.7239583333333,241.9115872124319,313.6119791666667,279.5477837998638,292.0559895833333,298.3658820935798L270.5,317.1839803872957" class="er relationshipLine"/><path style="stroke: gray; fill: none;" marker-start="url(#ZERO_OR_MORE_START)" marker-end="url(#ONLY_ONE_END)" d="M601.2327658851366,143.1376953125L609.9316017792804,153.32731119791666C618.6304376734244,163.51692708333334,636.0281094617122,183.89615885416666,644.7269453558561,222.81363932291666C653.42578125,261.7311197916667,653.42578125,319.1868489583333,653.42578125,376.642578125C653.42578125,434.0983072916667,653.42578125,491.5540364583333,653.42578125,536.1305338541666C653.42578125,580.70703125,653.42578125,612.404296875,653.42578125,644.1015625C653.42578125,675.798828125,653.42578125,707.49609375,630.568359375,743.9420182808813C607.7109375,780.3879428117625,561.99609375,821.582526248525,539.138671875,842.1798179669063L516.28125,862.7771096852875" class="er relationshipLine"/><g transform="translate(134.28125,254.275390625 )" id="entity-Product-da3bf888-9d24-4057-9725-07286552a160"><rect height="244.73437690734863" width="136.21875" y="0" x="0" class="er entityBox"/><text style="dominant-baseline: middle; text-anchor: middle; font-size: 12px;" transform="translate(68.109375,12)" y="0" x="0" id="text-entity-Product-da3bf888-9d24-4057-9725-07286552a160" class="er entityLabel">Product</text><rect height="22.091796875" width="53.671875" y="24" x="0" class="er attributeBoxOdd"/><text style="dominant-baseline: middle; font-size: 10.2px;" transform="translate(5,35.0458984375)" y="0" x="0" id="text-entity-Product-da3bf888-9d24-4057-9725-07286552a160-attr-1-type" class="er entityLabel">String</text><rect height="22.091796875" width="60.984375" y="24" x="53.671875" class="er attributeBoxOdd"/><text style="dominant-baseline: middle; font-size: 10.2px;" transform="translate(58.671875,35.0458984375)" y="0" x="0" id="text-entity-Product-da3bf888-9d24-4057-9725-07286552a160-attr-1-name" class="er entityLabel">id</text><rect height="22.091796875" width="21.5625" y="24" x="114.65625" class="er attributeBoxOdd"/><text style="dominant-baseline: middle; font-size: 10.2px;" transform="translate(119.65625,35.0458984375)" y="0" x="0" id="text-entity-Product-da3bf888-9d24-4057-9725-07286552a160-attr-1-key" class="er entityLabel">PK</text><rect height="22.091796875" width="53.671875" y="46.091796875" x="0" class="er attributeBoxEven"/><text style="dominant-baseline: middle; font-size: 10.2px;" transform="translate(5,57.1376953125)" y="0" x="0" id="text-entity-Product-da3bf888-9d24-4057-9725-07286552a160-attr-2-type" class="er entityLabel">String</text><rect height="22.091796875" width="60.984375" y="46.091796875" x="53.671875" class="er attributeBoxEven"/><text style="dominant-baseline: middle; font-size: 10.2px;" transform="translate(58.671875,57.1376953125)" y="0" x="0" id="text-entity-Product-da3bf888-9d24-4057-9725-07286552a160-attr-2-name" class="er entityLabel">name</text><rect height="22.091796875" width="21.5625" y="46.091796875" x="114.65625" class="er attributeBoxEven"/><text style="dominant-baseline: middle; font-size: 10.2px;" transform="translate(119.65625,57.1376953125)" y="0" x="0" id="text-entity-Product-da3bf888-9d24-4057-9725-07286552a160-attr-2-key" class="er entityLabel"/><rect height="22.091796875" width="53.671875" y="68.18359375" x="0" class="er attributeBoxOdd"/><text style="dominant-baseline: middle; font-size: 10.2px;" transform="translate(5,79.2294921875)" y="0" x="0" id="text-entity-Product-da3bf888-9d24-4057-9725-07286552a160-attr-3-type" class="er entityLabel">String</text><rect height="22.091796875" width="60.984375" y="68.18359375" x="53.671875" class="er attributeBoxOdd"/><text style="dominant-baseline: middle; font-size: 10.2px;" transform="translate(58.671875,79.2294921875)" y="0" x="0" id="text-entity-Product-da3bf888-9d24-4057-9725-07286552a160-attr-3-name" class="er entityLabel">code</text><rect height="22.091796875" width="21.5625" y="68.18359375" x="114.65625" class="er attributeBoxOdd"/><text style="dominant-baseline: middle; font-size: 10.2px;" transform="translate(119.65625,79.2294921875)" y="0" x="0" id="text-entity-Product-da3bf888-9d24-4057-9725-07286552a160-attr-3-key" class="er entityLabel"/><rect height="22.091797828674316" width="53.671875" y="90.275390625" x="0" class="er attributeBoxEven"/><text style="dominant-baseline: middle; font-size: 10.2px;" transform="translate(5,101.32128953933716)" y="0" x="0" id="text-entity-Product-da3bf888-9d24-4057-9725-07286552a160-attr-4-type" class="er entityLabel">String</text><rect height="22.091797828674316" width="60.984375" y="90.275390625" x="53.671875" class="er attributeBoxEven"/><text style="dominant-baseline: middle; font-size: 10.2px;" transform="translate(58.671875,101.32128953933716)" y="0" x="0" id="text-entity-Product-da3bf888-9d24-4057-9725-07286552a160-attr-4-name" class="er entityLabel">price</text><rect height="22.091797828674316" width="21.5625" y="90.275390625" x="114.65625" class="er attributeBoxEven"/><text style="dominant-baseline: middle; font-size: 10.2px;" transform="translate(119.65625,101.32128953933716)" y="0" x="0" id="text-entity-Product-da3bf888-9d24-4057-9725-07286552a160-attr-4-key" class="er entityLabel"/><rect height="22.091796875" width="53.671875" y="112.36718845367432" x="0" class="er attributeBoxOdd"/><text style="dominant-baseline: middle; font-size: 10.2px;" transform="translate(5,123.41308689117432)" y="0" x="0" id="text-entity-Product-da3bf888-9d24-4057-9725-07286552a160-attr-5-type" class="er entityLabel">String</text><rect height="22.091796875" width="60.984375" y="112.36718845367432" x="53.671875" class="er attributeBoxOdd"/><text style="dominant-baseline: middle; font-size: 10.2px;" transform="translate(58.671875,123.41308689117432)" y="0" x="0" id="text-entity-Product-da3bf888-9d24-4057-9725-07286552a160-attr-5-name" class="er entityLabel">description</text><rect height="22.091796875" width="21.5625" y="112.36718845367432" x="114.65625" class="er attributeBoxOdd"/><text style="dominant-baseline: middle; font-size: 10.2px;" transform="translate(119.65625,123.41308689117432)" y="0" x="0" id="text-entity-Product-da3bf888-9d24-4057-9725-07286552a160-attr-5-key" class="er entityLabel"/><rect height="22" width="53.671875" y="134.45898532867432" x="0" class="er attributeBoxEven"/><text style="dominant-baseline: middle; font-size: 10.2px;" transform="translate(5,145.45898532867432)" y="0" x="0" id="text-entity-Product-da3bf888-9d24-4057-9725-07286552a160-attr-6-type" class="er entityLabel">DateTime</text><rect height="22" width="60.984375" y="134.45898532867432" x="53.671875" class="er attributeBoxEven"/><text style="dominant-baseline: middle; font-size: 10.2px;" transform="translate(58.671875,145.45898532867432)" y="0" x="0" id="text-entity-Product-da3bf888-9d24-4057-9725-07286552a160-attr-6-name" class="er entityLabel">createdAt</text><rect height="22" width="21.5625" y="134.45898532867432" x="114.65625" class="er attributeBoxEven"/><text style="dominant-baseline: middle; font-size: 10.2px;" transform="translate(119.65625,145.45898532867432)" y="0" x="0" id="text-entity-Product-da3bf888-9d24-4057-9725-07286552a160-attr-6-key" class="er entityLabel"/><rect height="22.091796875" width="53.671875" y="156.45898532867432" x="0" class="er attributeBoxOdd"/><text style="dominant-baseline: middle; font-size: 10.2px;" transform="translate(5,167.50488376617432)" y="0" x="0" id="text-entity-Product-da3bf888-9d24-4057-9725-07286552a160-attr-7-type" class="er entityLabel">DateTime</text><rect height="22.091796875" width="60.984375" y="156.45898532867432" x="53.671875" class="er attributeBoxOdd"/><text style="dominant-baseline: middle; font-size: 10.2px;" transform="translate(58.671875,167.50488376617432)" y="0" x="0" id="text-entity-Product-da3bf888-9d24-4057-9725-07286552a160-attr-7-name" class="er entityLabel">updatedAt</text><rect height="22.091796875" width="21.5625" y="156.45898532867432" x="114.65625" class="er attributeBoxOdd"/><text style="dominant-baseline: middle; font-size: 10.2px;" transform="translate(119.65625,167.50488376617432)" y="0" x="0" id="text-entity-Product-da3bf888-9d24-4057-9725-07286552a160-attr-7-key" class="er entityLabel"/><rect height="22.091796875" width="53.671875" y="178.55078220367432" x="0" class="er attributeBoxEven"/><text style="dominant-baseline: middle; font-size: 10.2px;" transform="translate(5,189.59668064117432)" y="0" x="0" id="text-entity-Product-da3bf888-9d24-4057-9725-07286552a160-attr-8-type" class="er entityLabel">String</text><rect height="22.091796875" width="60.984375" y="178.55078220367432" x="53.671875" class="er attributeBoxEven"/><text style="dominant-baseline: middle; font-size: 10.2px;" transform="translate(58.671875,189.59668064117432)" y="0" x="0" id="text-entity-Product-da3bf888-9d24-4057-9725-07286552a160-attr-8-name" class="er entityLabel">type</text><rect height="22.091796875" width="21.5625" y="178.55078220367432" x="114.65625" class="er attributeBoxEven"/><text style="dominant-baseline: middle; font-size: 10.2px;" transform="translate(119.65625,189.59668064117432)" y="0" x="0" id="text-entity-Product-da3bf888-9d24-4057-9725-07286552a160-attr-8-key" class="er entityLabel"/><rect height="22.091797828674316" width="53.671875" y="200.64257907867432" x="0" class="er attributeBoxOdd"/><text style="dominant-baseline: middle; font-size: 10.2px;" transform="translate(5,211.68847799301147)" y="0" x="0" id="text-entity-Product-da3bf888-9d24-4057-9725-07286552a160-attr-9-type" class="er entityLabel">String</text><rect height="22.091797828674316" width="60.984375" y="200.64257907867432" x="53.671875" class="er attributeBoxOdd"/><text style="dominant-baseline: middle; font-size: 10.2px;" transform="translate(58.671875,211.68847799301147)" y="0" x="0" id="text-entity-Product-da3bf888-9d24-4057-9725-07286552a160-attr-9-name" class="er entityLabel">image</text><rect height="22.091797828674316" width="21.5625" y="200.64257907867432" x="114.65625" class="er attributeBoxOdd"/><text style="dominant-baseline: middle; font-size: 10.2px;" transform="translate(119.65625,211.68847799301147)" y="0" x="0" id="text-entity-Product-da3bf888-9d24-4057-9725-07286552a160-attr-9-key" class="er entityLabel"/><rect height="22" width="53.671875" y="222.73437690734863" x="0" class="er attributeBoxEven"/><text style="dominant-baseline: middle; font-size: 10.2px;" transform="translate(5,233.73437690734863)" y="0" x="0" id="text-entity-Product-da3bf888-9d24-4057-9725-07286552a160-attr-10-type" class="er entityLabel">Boolean</text><rect height="22" width="60.984375" y="222.73437690734863" x="53.671875" class="er attributeBoxEven"/><text style="dominant-baseline: middle; font-size: 10.2px;" transform="translate(58.671875,233.73437690734863)" y="0" x="0" id="text-entity-Product-da3bf888-9d24-4057-9725-07286552a160-attr-10-name" class="er entityLabel">bestSeller</text><rect height="22" width="21.5625" y="222.73437690734863" x="114.65625" class="er attributeBoxEven"/><text style="dominant-baseline: middle; font-size: 10.2px;" transform="translate(119.65625,233.73437690734863)" y="0" x="0" id="text-entity-Product-da3bf888-9d24-4057-9725-07286552a160-attr-10-key" class="er entityLabel"/></g><g transform="translate(383.390625,789.193359375 )" id="entity-User-00b162ca-39a0-42a8-9ceb-b465e8862916"><rect height="266.9179697036743" width="132.890625" y="0" x="0" class="er entityBox"/><text style="dominant-baseline: middle; text-anchor: middle; font-size: 12px;" transform="translate(66.4453125,12)" y="0" x="0" id="text-entity-User-00b162ca-39a0-42a8-9ceb-b465e8862916" class="er entityLabel">User</text><rect height="22.091796875" width="53.671875" y="24" x="0" class="er attributeBoxOdd"/><text style="dominant-baseline: middle; font-size: 10.2px;" transform="translate(5,35.0458984375)" y="0" x="0" id="text-entity-User-00b162ca-39a0-42a8-9ceb-b465e8862916-attr-1-type" class="er entityLabel">String</text><rect height="22.091796875" width="57.65625" y="24" x="53.671875" class="er attributeBoxOdd"/><text style="dominant-baseline: middle; font-size: 10.2px;" transform="translate(58.671875,35.0458984375)" y="0" x="0" id="text-entity-User-00b162ca-39a0-42a8-9ceb-b465e8862916-attr-1-name" class="er entityLabel">id</text><rect height="22.091796875" width="21.5625" y="24" x="111.328125" class="er attributeBoxOdd"/><text style="dominant-baseline: middle; font-size: 10.2px;" transform="translate(116.328125,35.0458984375)" y="0" x="0" id="text-entity-User-00b162ca-39a0-42a8-9ceb-b465e8862916-attr-1-key" class="er entityLabel">PK</text><rect height="22.091796875" width="53.671875" y="46.091796875" x="0" class="er attributeBoxEven"/><text style="dominant-baseline: middle; font-size: 10.2px;" transform="translate(5,57.1376953125)" y="0" x="0" id="text-entity-User-00b162ca-39a0-42a8-9ceb-b465e8862916-attr-2-type" class="er entityLabel">String</text><rect height="22.091796875" width="57.65625" y="46.091796875" x="53.671875" class="er attributeBoxEven"/><text style="dominant-baseline: middle; font-size: 10.2px;" transform="translate(58.671875,57.1376953125)" y="0" x="0" id="text-entity-User-00b162ca-39a0-42a8-9ceb-b465e8862916-attr-2-name" class="er entityLabel">firstName</text><rect height="22.091796875" width="21.5625" y="46.091796875" x="111.328125" class="er attributeBoxEven"/><text style="dominant-baseline: middle; font-size: 10.2px;" transform="translate(116.328125,57.1376953125)" y="0" x="0" id="text-entity-User-00b162ca-39a0-42a8-9ceb-b465e8862916-attr-2-key" class="er entityLabel"/><rect height="22.091796875" width="53.671875" y="68.18359375" x="0" class="er attributeBoxOdd"/><text style="dominant-baseline: middle; font-size: 10.2px;" transform="translate(5,79.2294921875)" y="0" x="0" id="text-entity-User-00b162ca-39a0-42a8-9ceb-b465e8862916-attr-3-type" class="er entityLabel">String</text><rect height="22.091796875" width="57.65625" y="68.18359375" x="53.671875" class="er attributeBoxOdd"/><text style="dominant-baseline: middle; font-size: 10.2px;" transform="translate(58.671875,79.2294921875)" y="0" x="0" id="text-entity-User-00b162ca-39a0-42a8-9ceb-b465e8862916-attr-3-name" class="er entityLabel">lastName</text><rect height="22.091796875" width="21.5625" y="68.18359375" x="111.328125" class="er attributeBoxOdd"/><text style="dominant-baseline: middle; font-size: 10.2px;" transform="translate(116.328125,79.2294921875)" y="0" x="0" id="text-entity-User-00b162ca-39a0-42a8-9ceb-b465e8862916-attr-3-key" class="er entityLabel"/><rect height="22.091796875" width="53.671875" y="90.275390625" x="0" class="er attributeBoxEven"/><text style="dominant-baseline: middle; font-size: 10.2px;" transform="translate(5,101.3212890625)" y="0" x="0" id="text-entity-User-00b162ca-39a0-42a8-9ceb-b465e8862916-attr-4-type" class="er entityLabel">String</text><rect height="22.091796875" width="57.65625" y="90.275390625" x="53.671875" class="er attributeBoxEven"/><text style="dominant-baseline: middle; font-size: 10.2px;" transform="translate(58.671875,101.3212890625)" y="0" x="0" id="text-entity-User-00b162ca-39a0-42a8-9ceb-b465e8862916-attr-4-name" class="er entityLabel">email</text><rect height="22.091796875" width="21.5625" y="90.275390625" x="111.328125" class="er attributeBoxEven"/><text style="dominant-baseline: middle; font-size: 10.2px;" transform="translate(116.328125,101.3212890625)" y="0" x="0" id="text-entity-User-00b162ca-39a0-42a8-9ceb-b465e8862916-attr-4-key" class="er entityLabel"/><rect height="22.091796875" width="53.671875" y="112.3671875" x="0" class="er attributeBoxOdd"/><text style="dominant-baseline: middle; font-size: 10.2px;" transform="translate(5,123.4130859375)" y="0" x="0" id="text-entity-User-00b162ca-39a0-42a8-9ceb-b465e8862916-attr-5-type" class="er entityLabel">String</text><rect height="22.091796875" width="57.65625" y="112.3671875" x="53.671875" class="er attributeBoxOdd"/><text style="dominant-baseline: middle; font-size: 10.2px;" transform="translate(58.671875,123.4130859375)" y="0" x="0" id="text-entity-User-00b162ca-39a0-42a8-9ceb-b465e8862916-attr-5-name" class="er entityLabel">password</text><rect height="22.091796875" width="21.5625" y="112.3671875" x="111.328125" class="er attributeBoxOdd"/><text style="dominant-baseline: middle; font-size: 10.2px;" transform="translate(116.328125,123.4130859375)" y="0" x="0" id="text-entity-User-00b162ca-39a0-42a8-9ceb-b465e8862916-attr-5-key" class="er entityLabel"/><rect height="22.091797828674316" width="53.671875" y="134.458984375" x="0" class="er attributeBoxEven"/><text style="dominant-baseline: middle; font-size: 10.2px;" transform="translate(5,145.50488328933716)" y="0" x="0" id="text-entity-User-00b162ca-39a0-42a8-9ceb-b465e8862916-attr-6-type" class="er entityLabel">String</text><rect height="22.091797828674316" width="57.65625" y="134.458984375" x="53.671875" class="er attributeBoxEven"/><text style="dominant-baseline: middle; font-size: 10.2px;" transform="translate(58.671875,145.50488328933716)" y="0" x="0" id="text-entity-User-00b162ca-39a0-42a8-9ceb-b465e8862916-attr-6-name" class="er entityLabel">position</text><rect height="22.091797828674316" width="21.5625" y="134.458984375" x="111.328125" class="er attributeBoxEven"/><text style="dominant-baseline: middle; font-size: 10.2px;" transform="translate(116.328125,145.50488328933716)" y="0" x="0" id="text-entity-User-00b162ca-39a0-42a8-9ceb-b465e8862916-attr-6-key" class="er entityLabel"/><rect height="22.091796875" width="53.671875" y="156.55078220367432" x="0" class="er attributeBoxOdd"/><text style="dominant-baseline: middle; font-size: 10.2px;" transform="translate(5,167.59668064117432)" y="0" x="0" id="text-entity-User-00b162ca-39a0-42a8-9ceb-b465e8862916-attr-7-type" class="er entityLabel">String</text><rect height="22.091796875" width="57.65625" y="156.55078220367432" x="53.671875" class="er attributeBoxOdd"/><text style="dominant-baseline: middle; font-size: 10.2px;" transform="translate(58.671875,167.59668064117432)" y="0" x="0" id="text-entity-User-00b162ca-39a0-42a8-9ceb-b465e8862916-attr-7-name" class="er entityLabel">phone</text><rect height="22.091796875" width="21.5625" y="156.55078220367432" x="111.328125" class="er attributeBoxOdd"/><text style="dominant-baseline: middle; font-size: 10.2px;" transform="translate(116.328125,167.59668064117432)" y="0" x="0" id="text-entity-User-00b162ca-39a0-42a8-9ceb-b465e8862916-attr-7-key" class="er entityLabel"/><rect height="22.091796875" width="53.671875" y="178.64257907867432" x="0" class="er attributeBoxEven"/><text style="dominant-baseline: middle; font-size: 10.2px;" transform="translate(5,189.68847751617432)" y="0" x="0" id="text-entity-User-00b162ca-39a0-42a8-9ceb-b465e8862916-attr-8-type" class="er entityLabel">String</text><rect height="22.091796875" width="57.65625" y="178.64257907867432" x="53.671875" class="er attributeBoxEven"/><text style="dominant-baseline: middle; font-size: 10.2px;" transform="translate(58.671875,189.68847751617432)" y="0" x="0" id="text-entity-User-00b162ca-39a0-42a8-9ceb-b465e8862916-attr-8-name" class="er entityLabel">cpf</text><rect height="22.091796875" width="21.5625" y="178.64257907867432" x="111.328125" class="er attributeBoxEven"/><text style="dominant-baseline: middle; font-size: 10.2px;" transform="translate(116.328125,189.68847751617432)" y="0" x="0" id="text-entity-User-00b162ca-39a0-42a8-9ceb-b465e8862916-attr-8-key" class="er entityLabel"/><rect height="22.091796875" width="53.671875" y="200.73437595367432" x="0" class="er attributeBoxOdd"/><text style="dominant-baseline: middle; font-size: 10.2px;" transform="translate(5,211.78027439117432)" y="0" x="0" id="text-entity-User-00b162ca-39a0-42a8-9ceb-b465e8862916-attr-9-type" class="er entityLabel">String</text><rect height="22.091796875" width="57.65625" y="200.73437595367432" x="53.671875" class="er attributeBoxOdd"/><text style="dominant-baseline: middle; font-size: 10.2px;" transform="translate(58.671875,211.78027439117432)" y="0" x="0" id="text-entity-User-00b162ca-39a0-42a8-9ceb-b465e8862916-attr-9-name" class="er entityLabel">dateBirth</text><rect height="22.091796875" width="21.5625" y="200.73437595367432" x="111.328125" class="er attributeBoxOdd"/><text style="dominant-baseline: middle; font-size: 10.2px;" transform="translate(116.328125,211.78027439117432)" y="0" x="0" id="text-entity-User-00b162ca-39a0-42a8-9ceb-b465e8862916-attr-9-key" class="er entityLabel"/><rect height="22" width="53.671875" y="222.82617282867432" x="0" class="er attributeBoxEven"/><text style="dominant-baseline: middle; font-size: 10.2px;" transform="translate(5,233.82617282867432)" y="0" x="0" id="text-entity-User-00b162ca-39a0-42a8-9ceb-b465e8862916-attr-10-type" class="er entityLabel">DateTime</text><rect height="22" width="57.65625" y="222.82617282867432" x="53.671875" class="er attributeBoxEven"/><text style="dominant-baseline: middle; font-size: 10.2px;" transform="translate(58.671875,233.82617282867432)" y="0" x="0" id="text-entity-User-00b162ca-39a0-42a8-9ceb-b465e8862916-attr-10-name" class="er entityLabel">createdAt</text><rect height="22" width="21.5625" y="222.82617282867432" x="111.328125" class="er attributeBoxEven"/><text style="dominant-baseline: middle; font-size: 10.2px;" transform="translate(116.328125,233.82617282867432)" y="0" x="0" id="text-entity-User-00b162ca-39a0-42a8-9ceb-b465e8862916-attr-10-key" class="er entityLabel"/><rect height="22.091796875" width="53.671875" y="244.82617282867432" x="0" class="er attributeBoxOdd"/><text style="dominant-baseline: middle; font-size: 10.2px;" transform="translate(5,255.87207126617432)" y="0" x="0" id="text-entity-User-00b162ca-39a0-42a8-9ceb-b465e8862916-attr-11-type" class="er entityLabel">DateTime</text><rect height="22.091796875" width="57.65625" y="244.82617282867432" x="53.671875" class="er attributeBoxOdd"/><text style="dominant-baseline: middle; font-size: 10.2px;" transform="translate(58.671875,255.87207126617432)" y="0" x="0" id="text-entity-User-00b162ca-39a0-42a8-9ceb-b465e8862916-attr-11-name" class="er entityLabel">updatedAt</text><rect height="22.091796875" width="21.5625" y="244.82617282867432" x="111.328125" class="er attributeBoxOdd"/><text style="dominant-baseline: middle; font-size: 10.2px;" transform="translate(116.328125,255.87207126617432)" y="0" x="0" id="text-entity-User-00b162ca-39a0-42a8-9ceb-b465e8862916-attr-11-key" class="er entityLabel"/></g><g transform="translate(20,20 )" id="entity-ShoeSize-b6a65c3f-abba-44e7-a66c-5d6e39e31969"><rect height="134.27539157867432" width="132.890625" y="0" x="0" class="er entityBox"/><text style="dominant-baseline: middle; text-anchor: middle; font-size: 12px;" transform="translate(66.4453125,12)" y="0" x="0" id="text-entity-ShoeSize-b6a65c3f-abba-44e7-a66c-5d6e39e31969" class="er entityLabel">ShoeSize</text><rect height="22.091796875" width="53.671875" y="24" x="0" class="er attributeBoxOdd"/><text style="dominant-baseline: middle; font-size: 10.2px;" transform="translate(5,35.0458984375)" y="0" x="0" id="text-entity-ShoeSize-b6a65c3f-abba-44e7-a66c-5d6e39e31969-attr-1-type" class="er entityLabel">String</text><rect height="22.091796875" width="57.65625" y="24" x="53.671875" class="er attributeBoxOdd"/><text style="dominant-baseline: middle; font-size: 10.2px;" transform="translate(58.671875,35.0458984375)" y="0" x="0" id="text-entity-ShoeSize-b6a65c3f-abba-44e7-a66c-5d6e39e31969-attr-1-name" class="er entityLabel">id</text><rect height="22.091796875" width="21.5625" y="24" x="111.328125" class="er attributeBoxOdd"/><text style="dominant-baseline: middle; font-size: 10.2px;" transform="translate(116.328125,35.0458984375)" y="0" x="0" id="text-entity-ShoeSize-b6a65c3f-abba-44e7-a66c-5d6e39e31969-attr-1-key" class="er entityLabel">PK</text><rect height="22" width="53.671875" y="46.091796875" x="0" class="er attributeBoxEven"/><text style="dominant-baseline: middle; font-size: 10.2px;" transform="translate(5,57.091796875)" y="0" x="0" id="text-entity-ShoeSize-b6a65c3f-abba-44e7-a66c-5d6e39e31969-attr-2-type" class="er entityLabel">Float</text><rect height="22" width="57.65625" y="46.091796875" x="53.671875" class="er attributeBoxEven"/><text style="dominant-baseline: middle; font-size: 10.2px;" transform="translate(58.671875,57.091796875)" y="0" x="0" id="text-entity-ShoeSize-b6a65c3f-abba-44e7-a66c-5d6e39e31969-attr-2-name" class="er entityLabel">size</text><rect height="22" width="21.5625" y="46.091796875" x="111.328125" class="er attributeBoxEven"/><text style="dominant-baseline: middle; font-size: 10.2px;" transform="translate(116.328125,57.091796875)" y="0" x="0" id="text-entity-ShoeSize-b6a65c3f-abba-44e7-a66c-5d6e39e31969-attr-2-key" class="er entityLabel"/><rect height="22.091797828674316" width="53.671875" y="68.091796875" x="0" class="er attributeBoxOdd"/><text style="dominant-baseline: middle; font-size: 10.2px;" transform="translate(5,79.13769578933716)" y="0" x="0" id="text-entity-ShoeSize-b6a65c3f-abba-44e7-a66c-5d6e39e31969-attr-3-type" class="er entityLabel">Int</text><rect height="22.091797828674316" width="57.65625" y="68.091796875" x="53.671875" class="er attributeBoxOdd"/><text style="dominant-baseline: middle; font-size: 10.2px;" transform="translate(58.671875,79.13769578933716)" y="0" x="0" id="text-entity-ShoeSize-b6a65c3f-abba-44e7-a66c-5d6e39e31969-attr-3-name" class="er entityLabel">quantity</text><rect height="22.091797828674316" width="21.5625" y="68.091796875" x="111.328125" class="er attributeBoxOdd"/><text style="dominant-baseline: middle; font-size: 10.2px;" transform="translate(116.328125,79.13769578933716)" y="0" x="0" id="text-entity-ShoeSize-b6a65c3f-abba-44e7-a66c-5d6e39e31969-attr-3-key" class="er entityLabel"/><rect height="22" width="53.671875" y="90.18359470367432" x="0" class="er attributeBoxEven"/><text style="dominant-baseline: middle; font-size: 10.2px;" transform="translate(5,101.18359470367432)" y="0" x="0" id="text-entity-ShoeSize-b6a65c3f-abba-44e7-a66c-5d6e39e31969-attr-4-type" class="er entityLabel">DateTime</text><rect height="22" width="57.65625" y="90.18359470367432" x="53.671875" class="er attributeBoxEven"/><text style="dominant-baseline: middle; font-size: 10.2px;" transform="translate(58.671875,101.18359470367432)" y="0" x="0" id="text-entity-ShoeSize-b6a65c3f-abba-44e7-a66c-5d6e39e31969-attr-4-name" class="er entityLabel">createdAt</text><rect height="22" width="21.5625" y="90.18359470367432" x="111.328125" class="er attributeBoxEven"/><text style="dominant-baseline: middle; font-size: 10.2px;" transform="translate(116.328125,101.18359470367432)" y="0" x="0" id="text-entity-ShoeSize-b6a65c3f-abba-44e7-a66c-5d6e39e31969-attr-4-key" class="er entityLabel"/><rect height="22.091796875" width="53.671875" y="112.18359470367432" x="0" class="er attributeBoxOdd"/><text style="dominant-baseline: middle; font-size: 10.2px;" transform="translate(5,123.22949314117432)" y="0" x="0" id="text-entity-ShoeSize-b6a65c3f-abba-44e7-a66c-5d6e39e31969-attr-5-type" class="er entityLabel">DateTime</text><rect height="22.091796875" width="57.65625" y="112.18359470367432" x="53.671875" class="er attributeBoxOdd"/><text style="dominant-baseline: middle; font-size: 10.2px;" transform="translate(58.671875,123.22949314117432)" y="0" x="0" id="text-entity-ShoeSize-b6a65c3f-abba-44e7-a66c-5d6e39e31969-attr-5-name" class="er entityLabel">updatedAt</text><rect height="22.091796875" width="21.5625" y="112.18359470367432" x="111.328125" class="er attributeBoxOdd"/><text style="dominant-baseline: middle; font-size: 10.2px;" transform="translate(116.328125,123.22949314117432)" y="0" x="0" id="text-entity-ShoeSize-b6a65c3f-abba-44e7-a66c-5d6e39e31969-attr-5-key" class="er entityLabel"/></g><g transform="translate(293.08984375,42.0458984375 )" id="entity-CartItem-b45788f4-5bd5-46cc-95d8-f7f65d8d7209"><rect height="90.18359470367432" width="106.3125" y="0" x="0" class="er entityBox"/><text style="dominant-baseline: middle; text-anchor: middle; font-size: 12px;" transform="translate(53.15625,12)" y="0" x="0" id="text-entity-CartItem-b45788f4-5bd5-46cc-95d8-f7f65d8d7209" class="er entityLabel">CartItem</text><rect height="22.091796875" width="36.53125" y="24" x="0" class="er attributeBoxOdd"/><text style="dominant-baseline: middle; font-size: 10.2px;" transform="translate(5,35.0458984375)" y="0" x="0" id="text-entity-CartItem-b45788f4-5bd5-46cc-95d8-f7f65d8d7209-attr-1-type" class="er entityLabel">String</text><rect height="22.091796875" width="48.21875" y="24" x="36.53125" class="er attributeBoxOdd"/><text style="dominant-baseline: middle; font-size: 10.2px;" transform="translate(41.53125,35.0458984375)" y="0" x="0" id="text-entity-CartItem-b45788f4-5bd5-46cc-95d8-f7f65d8d7209-attr-1-name" class="er entityLabel">id</text><rect height="22.091796875" width="21.5625" y="24" x="84.75" class="er attributeBoxOdd"/><text style="dominant-baseline: middle; font-size: 10.2px;" transform="translate(89.75,35.0458984375)" y="0" x="0" id="text-entity-CartItem-b45788f4-5bd5-46cc-95d8-f7f65d8d7209-attr-1-key" class="er entityLabel">PK</text><rect height="22.091797828674316" width="36.53125" y="46.091796875" x="0" class="er attributeBoxEven"/><text style="dominant-baseline: middle; font-size: 10.2px;" transform="translate(5,57.13769578933716)" y="0" x="0" id="text-entity-CartItem-b45788f4-5bd5-46cc-95d8-f7f65d8d7209-attr-2-type" class="er entityLabel">Int</text><rect height="22.091797828674316" width="48.21875" y="46.091796875" x="36.53125" class="er attributeBoxEven"/><text style="dominant-baseline: middle; font-size: 10.2px;" transform="translate(41.53125,57.13769578933716)" y="0" x="0" id="text-entity-CartItem-b45788f4-5bd5-46cc-95d8-f7f65d8d7209-attr-2-name" class="er entityLabel">quantity</text><rect height="22.091797828674316" width="21.5625" y="46.091796875" x="84.75" class="er attributeBoxEven"/><text style="dominant-baseline: middle; font-size: 10.2px;" transform="translate(89.75,57.13769578933716)" y="0" x="0" id="text-entity-CartItem-b45788f4-5bd5-46cc-95d8-f7f65d8d7209-attr-2-key" class="er entityLabel"/><rect height="22" width="36.53125" y="68.18359470367432" x="0" class="er attributeBoxOdd"/><text style="dominant-baseline: middle; font-size: 10.2px;" transform="translate(5,79.18359470367432)" y="0" x="0" id="text-entity-CartItem-b45788f4-5bd5-46cc-95d8-f7f65d8d7209-attr-3-type" class="er entityLabel">Int</text><rect height="22" width="48.21875" y="68.18359470367432" x="36.53125" class="er attributeBoxOdd"/><text style="dominant-baseline: middle; font-size: 10.2px;" transform="translate(41.53125,79.18359470367432)" y="0" x="0" id="text-entity-CartItem-b45788f4-5bd5-46cc-95d8-f7f65d8d7209-attr-3-name" class="er entityLabel">size</text><rect height="22" width="21.5625" y="68.18359470367432" x="84.75" class="er attributeBoxOdd"/><text style="dominant-baseline: middle; font-size: 10.2px;" transform="translate(89.75,79.18359470367432)" y="0" x="0" id="text-entity-CartItem-b45788f4-5bd5-46cc-95d8-f7f65d8d7209-attr-3-key" class="er entityLabel"/></g><g transform="translate(279.80078125,599.009765625 )" id="entity-Cart-38261977-e45d-4332-b60c-eadd45d2fc59"><rect height="90.18359375" width="132.890625" y="0" x="0" class="er entityBox"/><text style="dominant-baseline: middle; text-anchor: middle; font-size: 12px;" transform="translate(66.4453125,12)" y="0" x="0" id="text-entity-Cart-38261977-e45d-4332-b60c-eadd45d2fc59" class="er entityLabel">Cart</text><rect height="22.091796875" width="53.671875" y="24" x="0" class="er attributeBoxOdd"/><text style="dominant-baseline: middle; font-size: 10.2px;" transform="translate(5,35.0458984375)" y="0" x="0" id="text-entity-Cart-38261977-e45d-4332-b60c-eadd45d2fc59-attr-1-type" class="er entityLabel">String</text><rect height="22.091796875" width="57.65625" y="24" x="53.671875" class="er attributeBoxOdd"/><text style="dominant-baseline: middle; font-size: 10.2px;" transform="translate(58.671875,35.0458984375)" y="0" x="0" id="text-entity-Cart-38261977-e45d-4332-b60c-eadd45d2fc59-attr-1-name" class="er entityLabel">id</text><rect height="22.091796875" width="21.5625" y="24" x="111.328125" class="er attributeBoxOdd"/><text style="dominant-baseline: middle; font-size: 10.2px;" transform="translate(116.328125,35.0458984375)" y="0" x="0" id="text-entity-Cart-38261977-e45d-4332-b60c-eadd45d2fc59-attr-1-key" class="er entityLabel">PK</text><rect height="22" width="53.671875" y="46.091796875" x="0" class="er attributeBoxEven"/><text style="dominant-baseline: middle; font-size: 10.2px;" transform="translate(5,57.091796875)" y="0" x="0" id="text-entity-Cart-38261977-e45d-4332-b60c-eadd45d2fc59-attr-2-type" class="er entityLabel">DateTime</text><rect height="22" width="57.65625" y="46.091796875" x="53.671875" class="er attributeBoxEven"/><text style="dominant-baseline: middle; font-size: 10.2px;" transform="translate(58.671875,57.091796875)" y="0" x="0" id="text-entity-Cart-38261977-e45d-4332-b60c-eadd45d2fc59-attr-2-name" class="er entityLabel">createdAt</text><rect height="22" width="21.5625" y="46.091796875" x="111.328125" class="er attributeBoxEven"/><text style="dominant-baseline: middle; font-size: 10.2px;" transform="translate(116.328125,57.091796875)" y="0" x="0" id="text-entity-Cart-38261977-e45d-4332-b60c-eadd45d2fc59-attr-2-key" class="er entityLabel"/><rect height="22.091796875" width="53.671875" y="68.091796875" x="0" class="er attributeBoxOdd"/><text style="dominant-baseline: middle; font-size: 10.2px;" transform="translate(5,79.1376953125)" y="0" x="0" id="text-entity-Cart-38261977-e45d-4332-b60c-eadd45d2fc59-attr-3-type" class="er entityLabel">DateTime</text><rect height="22.091796875" width="57.65625" y="68.091796875" x="53.671875" class="er attributeBoxOdd"/><text style="dominant-baseline: middle; font-size: 10.2px;" transform="translate(58.671875,79.1376953125)" y="0" x="0" id="text-entity-Cart-38261977-e45d-4332-b60c-eadd45d2fc59-attr-3-name" class="er entityLabel">updatedAt</text><rect height="22.091796875" width="21.5625" y="68.091796875" x="111.328125" class="er attributeBoxOdd"/><text style="dominant-baseline: middle; font-size: 10.2px;" transform="translate(116.328125,79.1376953125)" y="0" x="0" id="text-entity-Cart-38261977-e45d-4332-b60c-eadd45d2fc59-attr-3-key" class="er entityLabel"/></g><g transform="translate(499.40234375,31.1376953125 )" id="entity-Sales-1aed3d6f-6b61-4f46-bb1c-137f12ffc863"><rect height="112" width="108.046875" y="0" x="0" class="er entityBox"/><text style="dominant-baseline: middle; text-anchor: middle; font-size: 12px;" transform="translate(54.0234375,12)" y="0" x="0" id="text-entity-Sales-1aed3d6f-6b61-4f46-bb1c-137f12ffc863" class="er entityLabel">Sales</text><rect height="22" width="53.671875" y="24" x="0" class="er attributeBoxOdd"/><text style="dominant-baseline: middle; font-size: 10.2px;" transform="translate(5,35)" y="0" x="0" id="text-entity-Sales-1aed3d6f-6b61-4f46-bb1c-137f12ffc863-attr-1-type" class="er entityLabel">Int</text><rect height="22" width="32.8125" y="24" x="53.671875" class="er attributeBoxOdd"/><text style="dominant-baseline: middle; font-size: 10.2px;" transform="translate(58.671875,35)" y="0" x="0" id="text-entity-Sales-1aed3d6f-6b61-4f46-bb1c-137f12ffc863-attr-1-name" class="er entityLabel">id</text><rect height="22" width="21.5625" y="24" x="86.484375" class="er attributeBoxOdd"/><text style="dominant-baseline: middle; font-size: 10.2px;" transform="translate(91.484375,35)" y="0" x="0" id="text-entity-Sales-1aed3d6f-6b61-4f46-bb1c-137f12ffc863-attr-1-key" class="er entityLabel">PK</text><rect height="22" width="53.671875" y="46" x="0" class="er attributeBoxEven"/><text style="dominant-baseline: middle; font-size: 10.2px;" transform="translate(5,57)" y="0" x="0" id="text-entity-Sales-1aed3d6f-6b61-4f46-bb1c-137f12ffc863-attr-2-type" class="er entityLabel">Float</text><rect height="22" width="32.8125" y="46" x="53.671875" class="er attributeBoxEven"/><text style="dominant-baseline: middle; font-size: 10.2px;" transform="translate(58.671875,57)" y="0" x="0" id="text-entity-Sales-1aed3d6f-6b61-4f46-bb1c-137f12ffc863-attr-2-name" class="er entityLabel">valor</text><rect height="22" width="21.5625" y="46" x="86.484375" class="er attributeBoxEven"/><text style="dominant-baseline: middle; font-size: 10.2px;" transform="translate(91.484375,57)" y="0" x="0" id="text-entity-Sales-1aed3d6f-6b61-4f46-bb1c-137f12ffc863-attr-2-key" class="er entityLabel"/><rect height="22" width="53.671875" y="68" x="0" class="er attributeBoxOdd"/><text style="dominant-baseline: middle; font-size: 10.2px;" transform="translate(5,79)" y="0" x="0" id="text-entity-Sales-1aed3d6f-6b61-4f46-bb1c-137f12ffc863-attr-3-type" class="er entityLabel">DateTime</text><rect height="22" width="32.8125" y="68" x="53.671875" class="er attributeBoxOdd"/><text style="dominant-baseline: middle; font-size: 10.2px;" transform="translate(58.671875,79)" y="0" x="0" id="text-entity-Sales-1aed3d6f-6b61-4f46-bb1c-137f12ffc863-attr-3-name" class="er entityLabel">data</text><rect height="22" width="21.5625" y="68" x="86.484375" class="er attributeBoxOdd"/><text style="dominant-baseline: middle; font-size: 10.2px;" transform="translate(91.484375,79)" y="0" x="0" id="text-entity-Sales-1aed3d6f-6b61-4f46-bb1c-137f12ffc863-attr-3-key" class="er entityLabel"/><rect height="22" width="53.671875" y="90" x="0" class="er attributeBoxEven"/><text style="dominant-baseline: middle; font-size: 10.2px;" transform="translate(5,101)" y="0" x="0" id="text-entity-Sales-1aed3d6f-6b61-4f46-bb1c-137f12ffc863-attr-4-type" class="er entityLabel">Int</text><rect height="22" width="32.8125" y="90" x="53.671875" class="er attributeBoxEven"/><text style="dominant-baseline: middle; font-size: 10.2px;" transform="translate(58.671875,101)" y="0" x="0" id="text-entity-Sales-1aed3d6f-6b61-4f46-bb1c-137f12ffc863-attr-4-name" class="er entityLabel">size</text><rect height="22" width="21.5625" y="90" x="86.484375" class="er attributeBoxEven"/><text style="dominant-baseline: middle; font-size: 10.2px;" transform="translate(91.484375,101)" y="0" x="0" id="text-entity-Sales-1aed3d6f-6b61-4f46-bb1c-137f12ffc863-attr-4-key" class="er entityLabel"/></g><rect height="14" width="22.90625" y="553.1025390625" x="213.77914428710938" class="er relationshipLabelBox"/><text style="text-anchor: middle; dominant-baseline: middle; font-size: 12px;" y="560.1025390625" x="225.23226928710938" id="rel1" class="er relationshipLabel">Cart</text><rect height="14" width="41.734375" y="211.79579162597656" x="78.46367645263672" class="er relationshipLabelBox"/><text style="text-anchor: middle; dominant-baseline: middle; font-size: 12px;" y="218.79579162597656" x="99.33086395263672" id="rel2" class="er relationshipLabel">product</text><rect height="14" width="41.734375" y="181.50051879882812" x="241.4666748046875" class="er relationshipLabelBox"/><text style="text-anchor: middle; dominant-baseline: middle; font-size: 12px;" y="188.50051879882812" x="262.3338623046875" id="rel3" class="er relationshipLabel">product</text><rect height="14" width="21.671875" y="357.1778564453125" x="488.99285888671875" class="er relationshipLabelBox"/><text style="text-anchor: middle; dominant-baseline: middle; font-size: 12px;" y="364.1778564453125" x="499.82879638671875" id="rel4" class="er relationshipLabel">cart</text><rect height="14" width="22.625" y="742.9223022460938" x="344.0069274902344" class="er relationshipLabelBox"/><text style="text-anchor: middle; dominant-baseline: middle; font-size: 12px;" y="749.9223022460938" x="355.3194274902344" id="rel5" class="er relationshipLabel">user</text><rect height="14" width="41.734375" y="213.33383178710938" x="362.0885925292969" class="er relationshipLabelBox"/><text style="text-anchor: middle; dominant-baseline: middle; font-size: 12px;" y="220.33383178710938" x="382.9557800292969" id="rel6" class="er relationshipLabel">product</text><rect height="14" width="22.625" y="514.9320068359375" x="642.11328125" class="er relationshipLabelBox"/><text style="text-anchor: middle; dominant-baseline: middle; font-size: 12px;" y="521.9320068359375" x="653.42578125" id="rel7" class="er relationshipLabel">user</text></svg>